<mxfile host="app.diagrams.net" modified="2021-02-04T09:33:30.924Z" agent="5.0 (Windows)" etag="M9rttlWde7eEUlC-_mxa" version="14.2.4" type="github">
  <diagram id="kgpKYQtTHZ0yAKxKKP6v" name="Page-1">
    <mxGraphModel dx="2031" dy="1130" grid="1" gridSize="10" guides="1" tooltips="1" connect="1" arrows="1" fold="1" page="1" pageScale="1" pageWidth="850" pageHeight="1100" math="0" shadow="0">
      <root>
        <mxCell id="0" />
        <mxCell id="1" parent="0" />
        <mxCell id="6u9HRy79YRFUqpu26OF2-1" value="" style="shape=flexArrow;endArrow=classic;html=1;fillColor=#1ba1e2;strokeColor=#006EAF;" parent="1" edge="1">
          <mxGeometry width="50" height="50" relative="1" as="geometry">
            <mxPoint x="250" y="480" as="sourcePoint" />
            <mxPoint x="1210" y="480" as="targetPoint" />
          </mxGeometry>
        </mxCell>
        <mxCell id="6u9HRy79YRFUqpu26OF2-2" value="" style="endArrow=none;dashed=1;html=1;dashPattern=1 3;strokeWidth=2;" parent="1" edge="1">
          <mxGeometry width="50" height="50" relative="1" as="geometry">
            <mxPoint x="240" y="1280" as="sourcePoint" />
            <mxPoint x="240" y="560" as="targetPoint" />
          </mxGeometry>
        </mxCell>
        <mxCell id="6u9HRy79YRFUqpu26OF2-3" value="" style="endArrow=none;dashed=1;html=1;dashPattern=1 3;strokeWidth=2;" parent="1" edge="1">
          <mxGeometry width="50" height="50" relative="1" as="geometry">
            <mxPoint x="400" y="1280" as="sourcePoint" />
            <mxPoint x="400" y="560" as="targetPoint" />
          </mxGeometry>
        </mxCell>
        <mxCell id="6u9HRy79YRFUqpu26OF2-4" value="" style="endArrow=none;dashed=1;html=1;dashPattern=1 3;strokeWidth=2;" parent="1" edge="1">
          <mxGeometry width="50" height="50" relative="1" as="geometry">
            <mxPoint x="560" y="1280" as="sourcePoint" />
            <mxPoint x="560" y="560" as="targetPoint" />
          </mxGeometry>
        </mxCell>
        <mxCell id="6u9HRy79YRFUqpu26OF2-5" value="" style="endArrow=none;dashed=1;html=1;dashPattern=1 3;strokeWidth=2;" parent="1" edge="1">
          <mxGeometry width="50" height="50" relative="1" as="geometry">
            <mxPoint x="720" y="1280" as="sourcePoint" />
            <mxPoint x="720" y="560" as="targetPoint" />
          </mxGeometry>
        </mxCell>
        <mxCell id="6u9HRy79YRFUqpu26OF2-6" value="" style="endArrow=none;dashed=1;html=1;dashPattern=1 3;strokeWidth=2;" parent="1" edge="1">
          <mxGeometry width="50" height="50" relative="1" as="geometry">
            <mxPoint x="880" y="1280" as="sourcePoint" />
            <mxPoint x="880" y="560" as="targetPoint" />
          </mxGeometry>
        </mxCell>
        <mxCell id="6u9HRy79YRFUqpu26OF2-7" value="" style="endArrow=none;dashed=1;html=1;dashPattern=1 3;strokeWidth=2;" parent="1" edge="1">
          <mxGeometry width="50" height="50" relative="1" as="geometry">
            <mxPoint x="1040" y="1280" as="sourcePoint" />
            <mxPoint x="1040" y="560" as="targetPoint" />
          </mxGeometry>
        </mxCell>
        <mxCell id="3nuBFxr9cyL0pnOWT2aG-7" value="Story Validation" style="rounded=0;whiteSpace=wrap;html=1;fontSize=14;fontFamily=Verdana;fillColor=#dae8fc;strokeColor=#6c8ebf;" parent="1" vertex="1">
          <mxGeometry x="275" y="870" width="110" height="65" as="geometry" />
        </mxCell>
        <mxCell id="6u9HRy79YRFUqpu26OF2-8" value="Ownership" style="text;html=1;strokeColor=none;fillColor=none;align=center;verticalAlign=middle;whiteSpace=wrap;rounded=0;fontStyle=1;fontSize=17;" parent="1" vertex="1">
          <mxGeometry x="10" y="590" width="170" height="40" as="geometry" />
        </mxCell>
        <mxCell id="6u9HRy79YRFUqpu26OF2-16" value="IT TA" style="text;html=1;strokeColor=none;fillColor=none;align=center;verticalAlign=middle;whiteSpace=wrap;rounded=0;fontSize=17;" parent="1" vertex="1">
          <mxGeometry x="100" y="752" width="110" height="25" as="geometry" />
        </mxCell>
        <mxCell id="6u9HRy79YRFUqpu26OF2-17" value="Dev. team" style="text;html=1;strokeColor=none;fillColor=none;align=center;verticalAlign=middle;whiteSpace=wrap;rounded=0;fontSize=17;" parent="1" vertex="1">
          <mxGeometry x="100" y="716.5" width="110" height="25" as="geometry" />
        </mxCell>
        <mxCell id="6u9HRy79YRFUqpu26OF2-18" value="BU MT" style="text;html=1;strokeColor=none;fillColor=none;align=center;verticalAlign=middle;whiteSpace=wrap;rounded=0;fontSize=17;" parent="1" vertex="1">
          <mxGeometry x="100" y="890" width="110" height="25" as="geometry" />
        </mxCell>
        <mxCell id="6u9HRy79YRFUqpu26OF2-19" value="Story Unit &amp;amp; Smoke Test" style="rounded=0;whiteSpace=wrap;html=1;fontFamily=Verdana;fontSize=14;strokeColor=#666666;fontColor=#333333;fillColor=#E3E3E3;" parent="1" vertex="1">
          <mxGeometry x="425" y="659" width="110" height="65" as="geometry" />
        </mxCell>
        <mxCell id="6u9HRy79YRFUqpu26OF2-22" value="Story Verification" style="rounded=0;whiteSpace=wrap;html=1;fontSize=14;fontFamily=Verdana;fillColor=#dae8fc;strokeColor=#6c8ebf;gradientDirection=south;" parent="1" vertex="1">
          <mxGeometry x="581" y="870" width="110" height="65" as="geometry" />
        </mxCell>
        <mxCell id="6u9HRy79YRFUqpu26OF2-23" value="TA&lt;br&gt;&lt;div&gt;development&lt;/div&gt;&lt;div&gt;+&lt;br&gt;&lt;/div&gt;&lt;div&gt;Continuous Regression (Docker)&lt;/div&gt;" style="rounded=0;whiteSpace=wrap;html=1;fontSize=14;fontFamily=Verdana;strokeColor=#666666;fontColor=#333333;fillColor=#E3E3E3;" parent="1" vertex="1">
          <mxGeometry x="425" y="739" width="110" height="114.75" as="geometry" />
        </mxCell>
        <mxCell id="6u9HRy79YRFUqpu26OF2-25" value="Continuous Regression" style="rounded=0;whiteSpace=wrap;html=1;fontSize=14;fontFamily=Verdana;strokeColor=#6c8ebf;fillColor=#E3E3E3;" parent="1" vertex="1">
          <mxGeometry x="581" y="760.625" width="110" height="65" as="geometry" />
        </mxCell>
        <mxCell id="6u9HRy79YRFUqpu26OF2-29" value="BU TA" style="text;html=1;strokeColor=none;fillColor=none;align=center;verticalAlign=middle;whiteSpace=wrap;rounded=0;fontSize=17;" parent="1" vertex="1">
          <mxGeometry x="105" y="987.5" width="110" height="25" as="geometry" />
        </mxCell>
        <mxCell id="6u9HRy79YRFUqpu26OF2-32" value="QG1" style="text;html=1;strokeColor=none;fillColor=none;align=center;verticalAlign=middle;whiteSpace=wrap;rounded=0;fontSize=17;fontStyle=1" parent="1" vertex="1">
          <mxGeometry x="282.5" y="590" width="65" height="40" as="geometry" />
        </mxCell>
        <mxCell id="6u9HRy79YRFUqpu26OF2-33" value="QG2" style="text;html=1;strokeColor=none;fillColor=none;align=center;verticalAlign=middle;whiteSpace=wrap;rounded=0;fontSize=17;fontStyle=1" parent="1" vertex="1">
          <mxGeometry x="440" y="590" width="65" height="40" as="geometry" />
        </mxCell>
        <mxCell id="6u9HRy79YRFUqpu26OF2-34" value="QG3" style="text;html=1;strokeColor=none;fillColor=none;align=center;verticalAlign=middle;whiteSpace=wrap;rounded=0;fontSize=17;fontStyle=1" parent="1" vertex="1">
          <mxGeometry x="600" y="590" width="65" height="40" as="geometry" />
        </mxCell>
        <mxCell id="6u9HRy79YRFUqpu26OF2-39" value="" style="endArrow=none;dashed=1;html=1;dashPattern=1 3;strokeWidth=1;fontSize=17;" parent="1" edge="1">
          <mxGeometry width="50" height="50" relative="1" as="geometry">
            <mxPoint y="1165" as="sourcePoint" />
            <mxPoint x="1910" y="1160" as="targetPoint" />
          </mxGeometry>
        </mxCell>
        <mxCell id="6u9HRy79YRFUqpu26OF2-45" value="&lt;h1&gt;Testing Activities in Plugin Development Life cycle&lt;/h1&gt;" style="text;html=1;strokeColor=none;fillColor=none;spacing=5;spacingTop=-20;whiteSpace=wrap;overflow=hidden;rounded=0;fontSize=17;" parent="1" vertex="1">
          <mxGeometry x="640" y="330" width="930" height="70" as="geometry" />
        </mxCell>
        <mxCell id="6u9HRy79YRFUqpu26OF2-46" value="QG5" style="text;html=1;strokeColor=none;fillColor=none;align=center;verticalAlign=middle;whiteSpace=wrap;rounded=0;fontSize=17;fontStyle=1" parent="1" vertex="1">
          <mxGeometry x="767.5" y="590" width="65" height="40" as="geometry" />
        </mxCell>
        <mxCell id="6u9HRy79YRFUqpu26OF2-48" value="Epic Verification" style="rounded=0;whiteSpace=wrap;html=1;fontFamily=Verdana;fontSize=14;fillColor=#dae8fc;strokeColor=#6c8ebf;" parent="1" vertex="1">
          <mxGeometry x="740" y="870" width="110" height="65" as="geometry" />
        </mxCell>
        <mxCell id="6u9HRy79YRFUqpu26OF2-49" value="QG6" style="text;html=1;strokeColor=none;fillColor=none;align=center;verticalAlign=middle;whiteSpace=wrap;rounded=0;fontSize=17;fontStyle=1" parent="1" vertex="1">
          <mxGeometry x="930" y="590" width="65" height="40" as="geometry" />
        </mxCell>
        <mxCell id="6u9HRy79YRFUqpu26OF2-51" value="Story creation &amp;amp; Refinement" style="text;html=1;strokeColor=none;fillColor=none;align=center;verticalAlign=middle;whiteSpace=wrap;rounded=0;fontSize=16;" parent="1" vertex="1">
          <mxGeometry x="245" y="520" width="140" height="20" as="geometry" />
        </mxCell>
        <mxCell id="6u9HRy79YRFUqpu26OF2-53" value="" style="endArrow=none;dashed=1;html=1;dashPattern=1 3;strokeWidth=1;fontSize=16;" parent="1" edge="1">
          <mxGeometry width="50" height="50" relative="1" as="geometry">
            <mxPoint y="640" as="sourcePoint" />
            <mxPoint x="1900" y="640" as="targetPoint" />
          </mxGeometry>
        </mxCell>
        <mxCell id="6u9HRy79YRFUqpu26OF2-55" value="Story Implementation" style="text;html=1;strokeColor=none;fillColor=none;align=center;verticalAlign=middle;whiteSpace=wrap;rounded=0;fontSize=16;" parent="1" vertex="1">
          <mxGeometry x="402.5" y="520" width="140" height="20" as="geometry" />
        </mxCell>
        <mxCell id="6u9HRy79YRFUqpu26OF2-56" value="Story Verification" style="text;html=1;strokeColor=none;fillColor=none;align=center;verticalAlign=middle;whiteSpace=wrap;rounded=0;fontSize=16;" parent="1" vertex="1">
          <mxGeometry x="562.5" y="520" width="140" height="20" as="geometry" />
        </mxCell>
        <mxCell id="6u9HRy79YRFUqpu26OF2-60" value="Epic Verification" style="text;html=1;strokeColor=none;fillColor=none;align=center;verticalAlign=middle;whiteSpace=wrap;rounded=0;fontSize=16;" parent="1" vertex="1">
          <mxGeometry x="730" y="520" width="140" height="20" as="geometry" />
        </mxCell>
        <mxCell id="t11BfAXbX9nfqwSB5EDf-2" value="&lt;font style=&quot;font-size: 17px;&quot;&gt;Stage&lt;/font&gt;" style="text;html=1;align=center;verticalAlign=middle;resizable=0;points=[];autosize=1;fontStyle=1;fontSize=17;" parent="1" vertex="1">
          <mxGeometry x="125" y="515" width="60" height="30" as="geometry" />
        </mxCell>
        <mxCell id="TedrvYYJf-PbsoNdMKIC-1" value="TA&lt;br&gt;&lt;div&gt;development&lt;/div&gt;&lt;div&gt;+&lt;br&gt;&lt;/div&gt;&lt;div&gt;Continuous Regression&lt;/div&gt;" style="rounded=0;whiteSpace=wrap;html=1;fontSize=14;fontFamily=Verdana;strokeColor=#6c8ebf;fillColor=#C4DCFF;" parent="1" vertex="1">
          <mxGeometry x="581" y="960" width="110" height="108.5" as="geometry" />
        </mxCell>
        <mxCell id="RdeGJBQ_vhTOfnHOWhH6-1" value="Release Test" style="text;html=1;strokeColor=none;fillColor=none;align=center;verticalAlign=middle;whiteSpace=wrap;rounded=0;fontSize=16;" parent="1" vertex="1">
          <mxGeometry x="880" y="515" width="140" height="20" as="geometry" />
        </mxCell>
        <mxCell id="RdeGJBQ_vhTOfnHOWhH6-6" value="Environment" style="text;html=1;strokeColor=none;fillColor=none;align=center;verticalAlign=middle;whiteSpace=wrap;rounded=0;fontStyle=1;fontSize=17;" parent="1" vertex="1">
          <mxGeometry x="75" y="1220" width="170" height="40" as="geometry" />
        </mxCell>
        <mxCell id="RdeGJBQ_vhTOfnHOWhH6-8" value="&lt;div&gt;Development&lt;/div&gt;&lt;div&gt;Docker&lt;br&gt;&lt;/div&gt;" style="rounded=1;whiteSpace=wrap;html=1;fontSize=14;fontFamily=Verdana;fillColor=#fff2cc;strokeColor=#d6b656;glass=0;sketch=1;" parent="1" vertex="1">
          <mxGeometry x="425" y="1200" width="110" height="65" as="geometry" />
        </mxCell>
        <mxCell id="RdeGJBQ_vhTOfnHOWhH6-11" value="&lt;div&gt;SKN19D&lt;br&gt;&lt;/div&gt;" style="rounded=1;whiteSpace=wrap;html=1;fontSize=14;fontFamily=Verdana;fillColor=#d5e8d4;strokeColor=#82b366;glass=0;sketch=1;" parent="1" vertex="1">
          <mxGeometry x="590" y="1200" width="260" height="65" as="geometry" />
        </mxCell>
        <mxCell id="RdeGJBQ_vhTOfnHOWhH6-14" value="&lt;h1 style=&quot;font-size: 29px&quot;&gt;For Single Plugin&lt;br style=&quot;font-size: 29px&quot;&gt;&lt;/h1&gt;" style="text;html=1;strokeColor=none;fillColor=none;spacing=5;spacingTop=-20;whiteSpace=wrap;overflow=hidden;rounded=0;fontSize=29;verticalAlign=top;fontColor=#485E80;align=center;" parent="1" vertex="1">
          <mxGeometry x="492.5" y="410" width="415" height="60" as="geometry" />
        </mxCell>
        <mxCell id="RdeGJBQ_vhTOfnHOWhH6-15" value="" style="shape=flexArrow;endArrow=classic;html=1;fillColor=#1ba1e2;strokeColor=#006EAF;endWidth=25.714285714285715;endSize=10.242857142857144;" parent="1" edge="1">
          <mxGeometry width="50" height="50" relative="1" as="geometry">
            <mxPoint x="1250" y="483" as="sourcePoint" />
            <mxPoint x="1500" y="480" as="targetPoint" />
          </mxGeometry>
        </mxCell>
        <mxCell id="RdeGJBQ_vhTOfnHOWhH6-16" value="" style="endArrow=none;dashed=1;html=1;dashPattern=1 3;strokeWidth=2;" parent="1" edge="1">
          <mxGeometry width="50" height="50" relative="1" as="geometry">
            <mxPoint x="1040" y="1287.37" as="sourcePoint" />
            <mxPoint x="1040" y="567.37" as="targetPoint" />
          </mxGeometry>
        </mxCell>
        <mxCell id="RdeGJBQ_vhTOfnHOWhH6-17" value="" style="endArrow=none;dashed=1;html=1;dashPattern=1 3;strokeWidth=2;" parent="1" edge="1">
          <mxGeometry width="50" height="50" relative="1" as="geometry">
            <mxPoint x="1290" y="1280" as="sourcePoint" />
            <mxPoint x="1290" y="560" as="targetPoint" />
          </mxGeometry>
        </mxCell>
        <mxCell id="RdeGJBQ_vhTOfnHOWhH6-18" value="" style="endArrow=none;dashed=1;html=1;dashPattern=1 3;strokeWidth=2;" parent="1" edge="1">
          <mxGeometry width="50" height="50" relative="1" as="geometry">
            <mxPoint x="1450" y="1280" as="sourcePoint" />
            <mxPoint x="1450" y="560" as="targetPoint" />
          </mxGeometry>
        </mxCell>
        <mxCell id="RdeGJBQ_vhTOfnHOWhH6-19" value="" style="endArrow=none;dashed=1;html=1;dashPattern=1 3;strokeWidth=2;" parent="1" edge="1">
          <mxGeometry width="50" height="50" relative="1" as="geometry">
            <mxPoint x="1559" y="1280" as="sourcePoint" />
            <mxPoint x="1559" y="560" as="targetPoint" />
          </mxGeometry>
        </mxCell>
        <mxCell id="RdeGJBQ_vhTOfnHOWhH6-20" value="" style="endArrow=none;dashed=1;html=1;dashPattern=1 3;strokeWidth=2;" parent="1" edge="1">
          <mxGeometry width="50" height="50" relative="1" as="geometry">
            <mxPoint x="1718.9999999999995" y="1280" as="sourcePoint" />
            <mxPoint x="1718.9999999999995" y="560" as="targetPoint" />
          </mxGeometry>
        </mxCell>
        <mxCell id="RdeGJBQ_vhTOfnHOWhH6-21" value="" style="endArrow=none;dashed=1;html=1;dashPattern=1 3;strokeWidth=2;" parent="1" edge="1">
          <mxGeometry width="50" height="50" relative="1" as="geometry">
            <mxPoint x="1878.9999999999995" y="1280" as="sourcePoint" />
            <mxPoint x="1878.9999999999995" y="560" as="targetPoint" />
          </mxGeometry>
        </mxCell>
        <mxCell id="RdeGJBQ_vhTOfnHOWhH6-25" value="Release Regression" style="rounded=0;whiteSpace=wrap;html=1;fontSize=14;fontFamily=Verdana;strokeColor=#666666;fontColor=#333333;fillColor=#E3E3E3;" parent="1" vertex="1">
          <mxGeometry x="1315" y="765.875" width="110" height="61" as="geometry" />
        </mxCell>
        <mxCell id="RdeGJBQ_vhTOfnHOWhH6-28" value="QG1" style="text;html=1;strokeColor=none;fillColor=none;align=center;verticalAlign=middle;whiteSpace=wrap;rounded=0;fontSize=17;fontStyle=1" parent="1" vertex="1">
          <mxGeometry x="1330" y="590" width="65" height="40" as="geometry" />
        </mxCell>
        <mxCell id="RdeGJBQ_vhTOfnHOWhH6-30" value="QG1" style="text;html=1;strokeColor=none;fillColor=none;align=center;verticalAlign=middle;whiteSpace=wrap;rounded=0;fontSize=17;fontStyle=1" parent="1" vertex="1">
          <mxGeometry x="1606.5" y="590" width="65" height="40" as="geometry" />
        </mxCell>
        <mxCell id="RdeGJBQ_vhTOfnHOWhH6-32" value="QG2" style="text;html=1;strokeColor=none;fillColor=none;align=center;verticalAlign=middle;whiteSpace=wrap;rounded=0;fontSize=17;fontStyle=1" parent="1" vertex="1">
          <mxGeometry x="1769" y="590" width="65" height="40" as="geometry" />
        </mxCell>
        <mxCell id="RdeGJBQ_vhTOfnHOWhH6-34" value="Plugin Release &lt;br&gt;Regression Test" style="text;html=1;strokeColor=none;fillColor=none;align=center;verticalAlign=middle;whiteSpace=wrap;rounded=0;fontSize=16;" parent="1" vertex="1">
          <mxGeometry x="1292.5" y="520" width="140" height="20" as="geometry" />
        </mxCell>
        <mxCell id="RdeGJBQ_vhTOfnHOWhH6-36" value="Plugin Release &lt;br&gt;Regression Test" style="text;html=1;strokeColor=none;fillColor=none;align=center;verticalAlign=middle;whiteSpace=wrap;rounded=0;fontSize=16;" parent="1" vertex="1">
          <mxGeometry x="1569" y="520" width="140" height="20" as="geometry" />
        </mxCell>
        <mxCell id="RdeGJBQ_vhTOfnHOWhH6-37" value="Release Regression" style="rounded=0;whiteSpace=wrap;html=1;fontSize=14;fontFamily=Verdana;strokeColor=#6c8ebf;fillColor=#C4DCFF;" parent="1" vertex="1">
          <mxGeometry x="1315" y="979.25" width="110" height="70" as="geometry" />
        </mxCell>
        <mxCell id="RdeGJBQ_vhTOfnHOWhH6-38" value="Corporate Acceptance Test" style="text;html=1;strokeColor=none;fillColor=none;align=center;verticalAlign=middle;whiteSpace=wrap;rounded=0;fontSize=16;" parent="1" vertex="1">
          <mxGeometry x="1719" y="515" width="140" height="20" as="geometry" />
        </mxCell>
        <mxCell id="RdeGJBQ_vhTOfnHOWhH6-41" value="&lt;div&gt;SKN11T (?)&lt;br&gt;&lt;/div&gt;" style="rounded=1;whiteSpace=wrap;html=1;fontSize=14;fontFamily=Verdana;fillColor=#d5e8d4;strokeColor=#82b366;glass=0;sketch=1;" parent="1" vertex="1">
          <mxGeometry x="1305" y="1195" width="130" height="65" as="geometry" />
        </mxCell>
        <mxCell id="RdeGJBQ_vhTOfnHOWhH6-43" value="&lt;h1 style=&quot;font-size: 29px&quot;&gt;For Plugins with a&amp;nbsp; new SwiftLOG release&lt;br style=&quot;font-size: 29px&quot;&gt;&lt;/h1&gt;" style="text;html=1;strokeColor=none;fillColor=none;spacing=5;spacingTop=-20;whiteSpace=wrap;overflow=hidden;rounded=0;fontSize=29;verticalAlign=top;fontColor=#485E80;align=center;" parent="1" vertex="1">
          <mxGeometry x="1210" y="390" width="340" height="80" as="geometry" />
        </mxCell>
        <mxCell id="RdeGJBQ_vhTOfnHOWhH6-45" value="" style="shape=flexArrow;endArrow=classic;html=1;fillColor=#1ba1e2;strokeColor=#006EAF;" parent="1" edge="1">
          <mxGeometry width="50" height="50" relative="1" as="geometry">
            <mxPoint x="1539.9999999999995" y="482.9999999999998" as="sourcePoint" />
            <mxPoint x="1899" y="483" as="targetPoint" />
          </mxGeometry>
        </mxCell>
        <mxCell id="RdeGJBQ_vhTOfnHOWhH6-46" value="&lt;h1 style=&quot;font-size: 29px&quot;&gt;Transition to Core&lt;br style=&quot;font-size: 29px&quot;&gt;&lt;/h1&gt;" style="text;html=1;strokeColor=none;fillColor=none;spacing=5;spacingTop=-20;whiteSpace=wrap;overflow=hidden;rounded=0;fontSize=29;verticalAlign=top;fontColor=#485E80;" parent="1" vertex="1">
          <mxGeometry x="1576.5" y="410" width="290" height="70" as="geometry" />
        </mxCell>
        <mxCell id="RdeGJBQ_vhTOfnHOWhH6-47" value="Release Regression" style="rounded=0;whiteSpace=wrap;html=1;fontSize=14;fontFamily=Verdana;strokeColor=#666666;fontColor=#333333;fillColor=#E3E3E3;" parent="1" vertex="1">
          <mxGeometry x="1589" y="767.125" width="110" height="58.5" as="geometry" />
        </mxCell>
        <mxCell id="RdeGJBQ_vhTOfnHOWhH6-48" value="Release Regression" style="rounded=0;whiteSpace=wrap;html=1;fontSize=14;fontFamily=Verdana;strokeColor=#6c8ebf;fillColor=#C4DCFF;" parent="1" vertex="1">
          <mxGeometry x="1584" y="979.25" width="110" height="70" as="geometry" />
        </mxCell>
        <mxCell id="RdeGJBQ_vhTOfnHOWhH6-49" value="SKN10D" style="rounded=1;whiteSpace=wrap;html=1;fontSize=14;fontFamily=Verdana;fillColor=#d5e8d4;strokeColor=#82b366;glass=0;sketch=1;" parent="1" vertex="1">
          <mxGeometry x="1579" y="1195" width="130" height="65" as="geometry" />
        </mxCell>
        <mxCell id="RdeGJBQ_vhTOfnHOWhH6-50" value="CAT" style="rounded=0;whiteSpace=wrap;html=1;fontFamily=Verdana;fontSize=14;fillColor=#dae8fc;strokeColor=#6c8ebf;" parent="1" vertex="1">
          <mxGeometry x="1749" y="870" width="110" height="65" as="geometry" />
        </mxCell>
        <mxCell id="RdeGJBQ_vhTOfnHOWhH6-51" value="SKN12T" style="rounded=1;whiteSpace=wrap;html=1;fontSize=14;fontFamily=Verdana;fillColor=#d5e8d4;strokeColor=#82b366;glass=0;sketch=1;" parent="1" vertex="1">
          <mxGeometry x="1736.5" y="1195" width="130" height="65" as="geometry" />
        </mxCell>
        <mxCell id="RdeGJBQ_vhTOfnHOWhH6-52" value="" style="ellipse;whiteSpace=wrap;html=1;aspect=fixed;fontSize=29;fontColor=#485E80;fillColor=#C4DCFF;flipV=1;flipH=1;strokeColor=none;" parent="1" vertex="1">
          <mxGeometry x="25" y="960" width="80" height="80" as="geometry" />
        </mxCell>
        <mxCell id="RdeGJBQ_vhTOfnHOWhH6-54" value="" style="ellipse;whiteSpace=wrap;html=1;aspect=fixed;fillColor=#dae8fc;fontSize=29;flipV=1;flipH=1;strokeColor=none;" parent="1" vertex="1">
          <mxGeometry x="25" y="855" width="80" height="80" as="geometry" />
        </mxCell>
        <mxCell id="RdeGJBQ_vhTOfnHOWhH6-55" value="" style="ellipse;whiteSpace=wrap;html=1;aspect=fixed;gradientColor=none;fontSize=29;fontColor=#485E80;fillColor=#E3E3E3;flipV=1;flipH=1;strokeColor=none;" parent="1" vertex="1">
          <mxGeometry x="25" y="710" width="80" height="80" as="geometry" />
        </mxCell>
        <mxCell id="RdeGJBQ_vhTOfnHOWhH6-57" value="" style="ellipse;whiteSpace=wrap;html=1;aspect=fixed;fillColor=#e1d5e7;fontSize=29;flipV=1;flipH=1;strokeColor=none;" parent="1" vertex="1">
          <mxGeometry x="25" y="1056.5" width="80" height="80" as="geometry" />
        </mxCell>
        <mxCell id="RdeGJBQ_vhTOfnHOWhH6-60" value="Customer" style="text;html=1;strokeColor=none;fillColor=none;align=center;verticalAlign=middle;whiteSpace=wrap;rounded=0;fontSize=17;" parent="1" vertex="1">
          <mxGeometry x="110" y="1075" width="110" height="25" as="geometry" />
        </mxCell>
        <mxCell id="YoP6dC6gUpUdOBvFpLSl-3" value="QG6" style="text;html=1;strokeColor=none;fillColor=none;align=center;verticalAlign=middle;whiteSpace=wrap;rounded=0;fontSize=17;fontStyle=1" vertex="1" parent="1">
          <mxGeometry x="1074.29" y="591.32" width="65" height="40" as="geometry" />
        </mxCell>
        <mxCell id="YoP6dC6gUpUdOBvFpLSl-4" value="&lt;div&gt;Customer&lt;br&gt;&lt;/div&gt;&lt;div&gt;Test&lt;/div&gt;" style="text;html=1;strokeColor=none;fillColor=none;align=center;verticalAlign=middle;whiteSpace=wrap;rounded=0;fontSize=16;" vertex="1" parent="1">
          <mxGeometry x="1024.29" y="516.32" width="140" height="20" as="geometry" />
        </mxCell>
        <mxCell id="YoP6dC6gUpUdOBvFpLSl-5" value="CT" style="rounded=0;whiteSpace=wrap;html=1;fontFamily=Verdana;fontSize=14;fillColor=#e1d5e7;strokeColor=#9673a6;" vertex="1" parent="1">
          <mxGeometry x="1057.79" y="1072.82" width="110" height="65" as="geometry" />
        </mxCell>
        <mxCell id="YoP6dC6gUpUdOBvFpLSl-6" value="Customer&lt;br&gt;SIT" style="rounded=1;whiteSpace=wrap;html=1;fontSize=14;fontFamily=Verdana;fillColor=#e1d5e7;strokeColor=#9673a6;glass=0;sketch=1;" vertex="1" parent="1">
          <mxGeometry x="1060.29" y="1201.32" width="110" height="65" as="geometry" />
        </mxCell>
        <mxCell id="YoP6dC6gUpUdOBvFpLSl-8" value="&lt;div&gt;SKN19T&lt;/div&gt;" style="rounded=1;whiteSpace=wrap;html=1;fontSize=14;fontFamily=Verdana;fillColor=#d5e8d4;strokeColor=#82b366;glass=0;sketch=1;" vertex="1" parent="1">
          <mxGeometry x="894.29" y="1201.32" width="130" height="65" as="geometry" />
        </mxCell>
        <mxCell id="YoP6dC6gUpUdOBvFpLSl-9" value="Release Regression" style="rounded=0;whiteSpace=wrap;html=1;fontSize=14;fontFamily=Verdana;strokeColor=#666666;fontColor=#333333;fillColor=#E3E3E3;" vertex="1" parent="1">
          <mxGeometry x="907.5" y="767.125" width="110" height="61" as="geometry" />
        </mxCell>
        <mxCell id="YoP6dC6gUpUdOBvFpLSl-10" value="Release Regression" style="rounded=0;whiteSpace=wrap;html=1;fontSize=14;fontFamily=Verdana;strokeColor=#6c8ebf;fillColor=#C4DCFF;" vertex="1" parent="1">
          <mxGeometry x="907.5" y="980.5" width="110" height="70" as="geometry" />
        </mxCell>
        <mxCell id="YoP6dC6gUpUdOBvFpLSl-11" value="" style="endArrow=none;dashed=1;html=1;dashPattern=1 3;strokeWidth=2;" edge="1" parent="1">
          <mxGeometry width="50" height="50" relative="1" as="geometry">
            <mxPoint x="1190" y="1280" as="sourcePoint" />
            <mxPoint x="1190" y="560" as="targetPoint" />
          </mxGeometry>
        </mxCell>
      </root>
    </mxGraphModel>
  </diagram>
</mxfile>
